<svg width="566" height="709" viewBox="0 0 566 709" fill="none" xmlns="http://www.w3.org/2000/svg">
<path d="M3.47363 591.298V102.822L66.1782 136.608L128.883 170.394L184.788 200.517L227.095 243.55L385.745 3.96371L447.098 38.2733L508.452 72.583L562.526 102.822V605.255L509.643 572.416L446.183 533.009L382.723 493.603V409.864L325.307 379.838L255.047 343.096L184.788 306.354V704.113L128.883 669.328L66.1782 630.313L3.47363 591.298Z" fill="white"/>
<path fill-rule="evenodd" clip-rule="evenodd" d="M384.708 0.727016L565.5 101.735V609.954L379.749 494.715V411.179L187.762 310.871V708.727L0.5 592.319V98.5065L186.795 198.793L226.612 239.256L384.708 0.727016ZM224.765 245.188L182.781 202.523L131.856 175.109V667.801L181.814 698.856V226.123L327.317 377.945L381.566 406.288L510.023 199.524L515.639 200.675L512.627 570.982L559.553 600.094V104.37L509.557 76.4372L331.838 360.945L224.765 245.188ZM504.589 73.6616L448.172 42.1415L282.749 299.764L330.863 351.779L504.589 73.6616ZM278.77 295.462L443.21 39.3693L386.782 7.8431L230.639 243.427L278.77 295.462ZM506.709 567.311L509.607 210.967L450.664 305.843L449.165 531.61L506.709 567.311ZM443.242 527.936L444.652 315.519L385.697 410.414V492.235L443.242 527.936ZM312.086 369.987L187.762 240.263V268.931L257.058 341.237L312.086 369.987ZM241.827 333.279L187.762 276.866V305.031L241.827 333.279ZM125.909 664.103V171.908L69.1519 141.354V628.821L125.909 664.103ZM63.2046 625.124V138.152L6.44737 107.599V589.842L63.2046 625.124Z" fill="#262626"/>
<path fill-rule="evenodd" clip-rule="evenodd" d="M382.723 409.813V493.475L446.183 532.845L447.694 305.236L382.723 409.813Z" fill="url(#paint0_linear)"/>
<path fill-rule="evenodd" clip-rule="evenodd" d="M445.052 304.101L450.668 305.249L449.124 537.754L379.749 494.715V409.212L445.052 304.101ZM385.697 410.414V492.235L443.242 527.936L444.652 315.519L385.697 410.414Z" fill="#262626"/>
<path fill-rule="evenodd" clip-rule="evenodd" d="M509.643 572.215L512.665 200.658L447.694 305.235L446.183 532.845L509.643 572.215Z" fill="url(#paint1_linear)"/>
<path fill-rule="evenodd" clip-rule="evenodd" d="M510.023 199.524L515.639 200.675L512.577 577.12L443.201 534.08L444.724 304.628L510.023 199.524ZM450.664 305.843L449.165 531.61L506.709 567.31L509.607 210.967L450.664 305.843Z" fill="#262626"/>
<defs>
<linearGradient id="paint0_linear" x1="415.208" y1="305.236" x2="415.208" y2="532.845" gradientUnits="userSpaceOnUse">
<stop stop-color="#262626"/>
<stop offset="0.75" stop-color="#F7F7F7"/>
<stop offset="0.9999" stop-color="#FBFBFB"/>
<stop offset="1" stop-color="white"/>
</linearGradient>
<linearGradient id="paint1_linear" x1="479.424" y1="200.658" x2="479.424" y2="572.215" gradientUnits="userSpaceOnUse">
<stop stop-color="#262626"/>
<stop offset="0.5625" stop-color="#E1E1E1"/>
<stop offset="0.723958" stop-color="#F7F7F7"/>
<stop offset="0.9999" stop-color="#FBFBFB"/>
<stop offset="1" stop-color="white"/>
</linearGradient>
</defs>
</svg>
