<svg width="571" height="717" viewBox="0 0 571 717" fill="none" xmlns="http://www.w3.org/2000/svg">
<path d="M3 597.92V103.967L66.3716 138.132L129.743 172.297L186.243 202.757L229 246.272L389.338 4L451.344 38.6944L513.35 73.3887L568 103.967V612.033L514.554 578.826L450.419 538.978L386.284 499.13V414.452L328.257 384.089L257.25 346.935L186.243 309.781V712L129.743 676.825L66.3716 637.373L3 597.92Z" fill="#262626"/>
<path d="M229 246.272L186.243 202.757L129.743 172.297M229 246.272L389.338 4L451.344 38.6944M229 246.272L281.682 303.312M386.284 414.452V499.13L450.419 538.978M386.284 414.452L328.257 384.089M386.284 414.452L451.946 308.605M129.743 172.297V676.825M129.743 172.297L66.3716 138.132M129.743 676.825L186.243 712V309.781M129.743 676.825L66.3716 637.373M66.3716 138.132L3 103.967V597.92L66.3716 637.373M66.3716 138.132V637.373M186.243 309.781V272.734M186.243 309.781L257.25 346.935M328.257 384.089L186.243 235.688V272.734M328.257 384.089L257.25 346.935M186.243 272.734L257.25 346.935M513.35 73.3887L568 103.967V612.033L514.554 578.826M513.35 73.3887L334.365 360.352L281.682 303.312M513.35 73.3887L451.344 38.6944M451.344 38.6944L281.682 303.312M514.554 578.826L517.608 202.757L451.946 308.605M514.554 578.826L450.419 538.978M451.946 308.605L450.419 538.978" stroke="white" stroke-width="5"/>
</svg>
